#!OML:ASF I:\golf\golf\golf 2\Subject 1\2002-09-07\Subject1.ASF
:FULLY-SPECIFIED
:DEGREES
149
root -7.41081 17.5088 2.78759 0.860609 45.4239 -12.8565
lowerback 3.83249 -10.0001 -18.2975
upperback 0.51213 -13.8362 -2.72784
thorax 1.98444 -6.95062 6.7809
lowerneck -4.11276 21.411 1.54015
upperneck 14.1186 31.2785 -12.7449
head 7.35619 14.2299 -1.39158
rclavicle -1.50405e-013 -1.59028e-014
rhumerus 4.8 -12.8806 -83.7965
rradius 98.956
rwrist -17.7154
rhand -63.8353 39.643
rfingers 7.12502
rthumb -35.7948 13.2764
lclavicle -1.50405e-013 -1.59028e-014
lhumerus 95.1249 -53.8705 37.0357
lradius 29.7303
lwrist -4.58011
lhand -16.3724 2.02143
lfingers 7.12502
lthumb -170.159 -148.229
rfemur -33.7818 11.819 27.4827
rtibia 37.6297
rfoot -9.70918 24.6096
rtoes 25.78
lfemur -3.67528 14.7055 3.19804
ltibia 25.7941
lfoot -13.4302 22.0866
ltoes -17.404
150
root -7.40797 17.5065 2.81234 1.13249 45.1227 -12.5313
lowerback 3.90327 -10.1074 -18.3788
upperback 0.423899 -14.0041 -2.79987
thorax 1.89045 -7.01835 6.75148
lowerneck -4.08991 21.5211 1.32601
upperneck 13.763 31.3567 -12.7098
head 7.20288 14.2901 -1.3798
rclavicle 6.8618e-014 -1.59028e-014
rhumerus 5.94027 -13.0884 -83.118
rradius 99.3377
rwrist -16.4476
rhand -63.6534 41.0654
rfingers 7.12502
rthumb -35.6225 14.657
lclavicle 6.8618e-014 -1.59028e-014
lhumerus 95.9337 -53.1489 37.2833
lradius 29.993
lwrist -4.94446
lhand -17.067 1.58114
lfingers 7.12502
lthumb -170.829 -148.638
rfemur -33.807 12.1261 27.2891
rtibia 37.7621
rfoot -10.0472 24.7151
rtoes 25.2945
lfemur -3.46208 14.8067 3.04335
ltibia 25.8248
lfoot -13.3814 22.0581
ltoes -17.5386
151
root -7.40473 17.4906 2.83106 1.36618 44.8218 -12.2712
lowerback 3.94224 -10.19 -18.3889
upperback 0.356957 -14.1278 -2.89151
thorax 1.80464 -7.06558 6.66521
lowerneck -4.10732 21.6134 1.19995
upperneck 13.4301 31.4135 -12.6815
head 7.07633 14.3395 -1.37321
rclavicle -6.01324e-014 1.90833e-014
rhumerus 7.08213 -13.4841 -82.4417
rradius 99.6838
rwrist -15.2933
rhand -63.4278 42.7113
rfingers 7.12502
rthumb -35.4086 16.2517
lclavicle -6.01324e-014 1.90833e-014
lhumerus 97.1469 -52.3416 37.1811
lradius 30.0817
lwrist -5.15167
lhand -17.5286 0.567226
lfingers 7.12502
lthumb -171.275 -149.633
rfemur -33.8862 12.4315 27.1225
rtibia 37.9045
rfoot -10.1402 24.8603
rtoes 25.5739
lfemur -3.24563 14.4077 2.93075
ltibia 25.8002
lfoot -13.5206 22.234
ltoes -17.9941
152
root -7.40187 17.4854 2.84979 1.55758 44.5317 -12.1028
lowerback 3.971 -10.2994 -18.3001
upperback 0.260016 -14.287 -2.95221
thorax 1.68472 -7.12708 6.56261
lowerneck -3.96897 21.7104 1.11211
upperneck 12.9351 31.4726 -12.8428
head 6.91071 14.3986 -1.44362
rclavicle -3.16316e-014 -8.5875e-014
rhumerus 8.24063 -13.7941 -81.7348
rradius 100.089
rwrist -14.1051
rhand -63.2368 43.9327
rfingers 7.12502
rthumb -35.2275 17.4301
lclavicle -3.16316e-014 -8.5875e-014
lhumerus 98.3799 -51.4771 36.963
lradius 30.1988
lwrist -4.90114
lhand -17.6675 0.052473
lfingers 7.12502
lthumb -171.409 -150.142
rfemur -33.9941 12.6847 27.0303
rtibia 38.0673
rfoot -10.0172 25.0925
rtoes 25.257
lfemur -2.68304 14.4812 2.87495
ltibia 25.6578
lfoot -15.1676 21.2002
ltoes -13.2622
153
root -7.39792 17.4818 2.8708 1.83929 44.2375 -11.9035
lowerback 3.87477 -10.4201 -18.2207
upperback 0.15406 -14.4345 -3.00557
thorax 1.62495 -7.18696 6.44807
lowerneck -3.74154 21.7846 1.07473
upperneck 12.3459 31.4917 -13.1003
head 6.72184 14.4471 -1.56199
rclavicle -6.9674e-014 1.27222e-014
rhumerus 9.42396 -14.0662 -80.9907
rradius 100.642
rwrist -12.7979
rhand -63.0384 43.744
rfingers 7.12502
rthumb -35.0394 17.1972
lclavicle -6.9674e-014 1.27222e-014
lhumerus 99.6429 -50.6356 36.688
lradius 30.4529
lwrist -4.36296
lhand -17.7063 0.540872
lfingers 7.12502
lthumb -171.446 -149.652
rfemur -34.1645 12.9379 26.9014
rtibia 38.2097
rfoot -9.88893 25.2826
rtoes 23.7498
lfemur -2.41892 14.5301 2.76543
ltibia 25.5201
lfoot -16.1071 20.7233
ltoes -9.93226
